<?xml version="1.0" standalone="no"?>
<!DOCTYPE svg PUBLIC "-//W3C//DTD SVG 20010904//EN"
 "http://www.w3.org/TR/2001/REC-SVG-20010904/DTD/svg10.dtd">
<svg version="1.0" xmlns="http://www.w3.org/2000/svg"
 width="2768.000000pt" height="1252.000000pt" viewBox="0 0 2768.000000 1252.000000"
 preserveAspectRatio="xMidYMid meet">

<g transform="translate(0.000000,1252.000000) scale(0.100000,-0.100000)"
fill="#000000" stroke="none">
<path d="M11875 11725 c-66 -8 -172 -18 -236 -23 -70 -6 -128 -16 -147 -26
-31 -16 -32 -18 -32 -84 0 -37 7 -130 15 -207 8 -77 22 -223 30 -325 9 -102
25 -282 36 -400 33 -363 34 -390 16 -390 -18 0 -81 49 -197 155 -179 163 -269
196 -379 140 -109 -55 -151 -172 -100 -280 29 -62 193 -215 326 -306 183 -123
219 -156 292 -264 87 -128 115 -184 145 -288 34 -116 46 -277 42 -567 -3 -250
-9 -300 -31 -300 -7 0 -75 55 -152 121 -137 121 -339 290 -654 549 -90 74
-193 162 -229 194 -36 32 -121 104 -190 160 -142 114 -407 337 -555 466 -149
130 -247 198 -299 205 -122 19 -268 -145 -236 -264 22 -84 37 -98 551 -524
190 -157 400 -335 466 -394 66 -59 173 -153 239 -208 65 -55 195 -166 289
-246 247 -212 320 -268 425 -333 111 -68 145 -97 171 -148 38 -74 32 -156 -19
-268 -56 -124 -311 -430 -357 -430 -33 0 -106 52 -274 193 -236 198 -452 378
-622 517 -84 69 -209 173 -278 232 -69 60 -167 143 -217 185 -50 43 -140 118
-200 166 -60 49 -234 195 -387 325 -345 293 -362 305 -444 310 -109 7 -188
-48 -218 -152 -29 -100 7 -177 134 -280 41 -34 239 -198 440 -364 201 -167
445 -367 541 -445 96 -78 200 -164 230 -192 48 -45 838 -686 920 -747 16 -12
30 -27 30 -33 0 -13 -114 -80 -220 -128 -202 -93 -457 -168 -570 -168 -76 0
-146 21 -211 65 -26 17 -155 123 -286 236 -365 316 -803 679 -849 706 -103 60
-211 54 -284 -17 -49 -48 -76 -129 -61 -184 25 -92 75 -146 307 -337 351 -289
618 -514 621 -525 5 -15 -12 -18 -324 -44 l-261 -22 -6 -30 c-3 -16 -4 -59 -1
-96 3 -36 10 -138 15 -226 11 -162 27 -304 37 -331 7 -18 82 -18 284 0 85 8
188 17 229 20 295 23 778 70 895 87 761 109 1337 456 1818 1098 132 176 280
454 361 681 113 313 157 680 126 1055 -5 61 -18 250 -30 420 -11 171 -24 351
-30 400 -5 50 -12 122 -15 160 -12 153 -64 723 -105 1150 -5 55 -14 152 -20
215 -24 254 -32 327 -41 363 l-10 37 -67 -1 c-37 -1 -121 -7 -187 -14z"/>
<path d="M9445 11479 c-807 -142 -1492 -613 -1884 -1296 -183 -319 -300 -665
-343 -1013 -25 -207 -14 -630 27 -1005 8 -71 23 -233 35 -360 11 -126 36 -403
55 -615 20 -212 42 -466 50 -565 9 -99 33 -358 54 -575 22 -217 45 -456 51
-530 6 -74 22 -254 36 -400 13 -146 31 -339 40 -430 8 -91 21 -235 29 -320 8
-85 22 -234 31 -330 36 -385 15 -613 -86 -920 -102 -312 -347 -672 -604 -887
-245 -206 -522 -346 -816 -412 -228 -52 -275 -66 -271 -81 4 -18 16 -130 36
-360 8 -96 18 -201 21 -232 l7 -58 60 0 c117 0 442 79 638 155 235 92 527 261
734 425 98 78 320 299 401 400 112 139 258 371 324 515 109 235 180 463 232
750 25 138 35 511 19 701 -11 133 -72 796 -91 990 -6 60 -15 163 -20 229 -5
66 -20 233 -34 370 -14 138 -30 313 -36 390 -6 77 -18 208 -26 290 -8 83 -19
198 -25 258 -5 59 -13 155 -19 215 -5 59 -19 206 -30 327 -11 121 -25 265 -30
320 -26 276 -51 547 -65 700 -8 94 -20 222 -25 285 -28 302 -32 385 -26 529
12 265 55 453 160 690 213 483 665 908 1142 1074 56 20 166 49 244 66 78 17
159 38 179 48 63 31 64 36 32 349 -16 153 -34 291 -40 307 -13 32 -16 32 -166
6z"/>
<path d="M6565 6459 c-55 -7 -199 -20 -710 -65 -807 -69 -1212 -201 -1675
-545 -165 -122 -425 -381 -547 -545 -321 -431 -503 -903 -534 -1384 -5 -85 -7
-189 -4 -230 81 -1107 96 -1287 144 -1705 11 -93 29 -282 41 -420 35 -419 68
-718 83 -760 13 -38 17 -40 58 -43 24 -2 87 1 139 7 52 6 169 18 260 26 196
17 213 25 218 99 2 26 -6 136 -18 244 -48 461 -103 1083 -95 1090 12 12 76
-32 185 -128 192 -170 263 -206 356 -180 130 37 201 188 143 302 -43 83 -175
200 -406 357 -185 125 -307 300 -368 527 -23 82 -40 634 -24 752 12 90 21 98
60 56 46 -50 543 -464 788 -656 58 -45 132 -108 165 -139 34 -31 122 -105 197
-165 75 -60 248 -203 385 -319 398 -337 464 -385 525 -385 41 0 122 45 165 92
68 74 78 142 34 228 -31 59 -37 65 -745 643 -93 77 -197 165 -230 197 -56 54
-340 297 -449 385 -28 22 -120 100 -205 174 -86 73 -214 171 -285 218 -207
137 -236 170 -236 271 0 108 52 219 175 377 84 108 203 235 220 235 26 0 137
-85 410 -312 154 -128 352 -291 440 -363 225 -183 329 -269 421 -350 43 -39
124 -106 179 -150 55 -44 264 -217 465 -385 385 -321 445 -366 497 -376 67
-13 175 47 218 120 18 31 25 57 25 95 0 102 -27 137 -236 307 -81 65 -262 213
-403 329 -141 115 -337 274 -436 354 -99 80 -214 175 -255 212 -74 65 -773
627 -902 724 -73 55 -84 70 -66 92 18 22 249 135 358 176 155 58 358 110 426
111 104 0 210 -60 394 -224 47 -42 231 -197 410 -346 569 -473 571 -474 673
-474 65 0 123 26 164 73 49 55 63 123 41 188 -29 86 -55 111 -588 549 -309
254 -340 280 -340 290 0 14 24 18 280 40 223 20 305 31 317 44 3 3 -2 85 -11
183 -9 98 -21 234 -27 303 -6 69 -14 139 -18 155 l-7 30 -90 1 c-49 1 -116 -2
-149 -7z"/>
<path d="M12869 4580 c-203 -32 -429 -184 -550 -368 -112 -171 -139 -337 -139
-857 0 -466 21 -626 106 -803 37 -76 59 -107 127 -175 210 -211 458 -298 738
-257 322 46 602 292 679 596 52 203 52 1052 0 1271 -63 267 -311 512 -584 579
-74 18 -300 26 -377 14z m313 -391 c172 -58 277 -198 305 -406 21 -156 13
-840 -11 -931 -49 -190 -189 -327 -373 -363 -178 -36 -407 78 -487 242 -15 31
-36 101 -48 155 -19 91 -21 130 -20 474 0 421 8 492 61 599 57 112 152 194
269 232 82 26 224 25 304 -2z"/>
<path d="M14962 4579 c-237 -31 -487 -212 -601 -437 -28 -55 -56 -147 -73
-237 -19 -103 -18 -1012 1 -1110 19 -99 67 -230 107 -296 96 -159 301 -309
488 -358 394 -103 795 75 972 434 81 164 87 203 92 579 l4 329 -144 -6 c-78
-4 -268 -7 -420 -7 l-278 0 0 -175 0 -175 242 0 241 0 -6 -115 c-10 -190 -56
-297 -174 -405 -139 -128 -330 -155 -503 -71 -79 38 -177 133 -211 206 -60
125 -64 168 -64 630 0 371 2 428 18 485 52 191 177 314 356 351 89 18 215 8
285 -24 111 -51 195 -144 236 -260 l18 -52 196 -3 c113 -1 196 1 196 7 0 35
-60 203 -101 281 -97 185 -234 312 -419 388 -105 44 -303 61 -458 41z"/>
<path d="M21255 4575 c-139 -25 -297 -109 -412 -218 -102 -95 -179 -231 -221
-386 l-26 -96 -1 -505 c0 -491 4 -580 27 -580 20 0 143 107 186 162 23 30 53
82 66 114 24 59 47 76 55 39 2 -11 10 -29 17 -40 12 -17 14 31 14 335 0 195 5
384 10 420 15 91 68 199 128 259 87 87 199 131 338 131 224 0 393 -137 452
-367 15 -59 17 -122 17 -488 0 -458 -3 -489 -61 -611 -59 -124 -197 -229 -336
-255 -117 -21 -263 16 -359 92 -51 40 -59 35 -152 -98 -21 -29 -37 -58 -37
-64 0 -15 -40 -79 -49 -79 -7 0 -51 81 -51 94 0 17 -80 117 -134 168 -85 80
-93 78 -51 -17 73 -163 210 -301 389 -392 117 -59 200 -76 371 -76 134 0 160
3 240 27 274 82 491 305 567 583 19 72 21 109 26 506 5 495 -5 675 -43 794
-70 219 -255 418 -468 505 -134 55 -343 73 -502 43z"/>
<path d="M9295 3350 l0 -1221 570 3 570 3 75 29 c105 40 190 97 261 174 76 83
112 144 145 247 70 218 24 509 -102 653 -45 52 -129 108 -198 133 -20 7 -36
16 -36 20 0 4 25 22 57 40 31 18 86 60 123 95 108 102 150 213 150 394 0 130
-19 222 -65 319 -48 100 -150 202 -255 253 -150 73 -133 71 -745 75 l-550 4 0
-1221z m1046 861 c80 -30 140 -87 175 -163 26 -56 29 -74 29 -158 0 -76 -4
-104 -22 -142 -29 -62 -97 -134 -154 -164 -73 -37 -160 -45 -444 -42 l-260 3
-3 335 c-1 184 0 341 3 349 4 11 58 13 313 9 286 -4 311 -6 363 -27z m29
-1026 c76 -27 159 -109 190 -190 18 -46 24 -81 24 -150 1 -83 -2 -96 -32 -157
-40 -81 -110 -148 -190 -180 -54 -21 -72 -23 -379 -26 l-323 -3 0 366 0 366
328 -3 c291 -3 333 -6 382 -23z"/>
<path d="M11380 3350 l0 -1220 180 0 180 0 2 1220 3 1220 -182 0 -183 0 0
-1220z"/>
<path d="M16430 3350 l0 -1220 755 0 755 0 0 175 0 175 -571 2 -570 3 -2 353
-2 352 488 0 487 0 0 171 0 170 -486 -2 -486 -2 1 344 1 344 570 0 570 0 0
178 0 177 -755 0 -755 0 0 -1220z"/>
<path d="M18320 3350 l0 -1220 185 0 185 0 2 858 3 857 60 -92 c33 -51 102
-161 154 -245 52 -84 135 -218 184 -298 50 -80 153 -248 230 -375 180 -297
175 -290 196 -272 23 21 198 50 267 44 83 -6 186 -27 209 -43 11 -8 27 -14 36
-14 9 0 28 -9 43 -21 l26 -20 0 1030 0 1031 -180 0 -180 0 0 -857 -1 -858 -27
32 c-15 17 -118 181 -230 365 -170 279 -321 526 -492 803 -17 28 -75 122 -130
210 -54 88 -119 193 -144 233 l-45 72 -176 0 -175 0 0 -1220z"/>
<path d="M22750 3350 l0 -1220 185 0 185 0 0 741 c0 426 4 738 9 735 5 -3 27
-50 50 -103 157 -374 322 -769 369 -885 l56 -138 158 0 158 0 6 28 c4 15 60
151 124 302 65 151 168 397 230 547 62 150 117 270 122 267 4 -3 8 -340 8
-750 l0 -744 185 0 185 0 0 1220 0 1220 -178 0 -179 0 -15 -37 c-19 -45 -85
-203 -283 -678 -80 -192 -191 -461 -247 -598 -56 -136 -107 -246 -112 -244
-10 3 -56 107 -304 692 -56 132 -152 357 -213 500 -61 143 -120 284 -132 313
l-20 52 -173 0 -174 0 0 -1220z"/>
<path d="M25340 3503 l0 -1068 26 28 26 28 154 -3 154 -3 0 353 0 352 495 0
495 0 0 170 0 169 -492 -2 -493 -2 0 345 0 345 578 0 577 0 0 178 0 177 -760
0 -760 0 0 -1067z"/>
<path d="M25737 2463 c3 -10 10 -23 15 -29 12 -17 58 -108 58 -116 0 -4 15
-40 33 -80 19 -40 37 -81 40 -90 6 -17 33 -18 374 -18 l368 0 0 175 0 175
-447 0 c-422 0 -447 -1 -441 -17z"/>
<path d="M19711 2240 c-12 -7 -10 -17 15 -57 l30 -48 129 -3 129 -3 -23 23
c-61 56 -241 113 -280 88z"/>
</g>
</svg>
